<svg xmlns="http://www.w3.org/2000/svg" width="495" height="280" viewBox="0 0 495 280" fill="none" role="img" aria-labelledby="repostats-most-active-files">
  <title id="repostats-most-active-files">Most Active Files</title>
  <style>
    .card-bg { fill: #0d1117; }
    .card-border { stroke: #30363d; stroke-width: 1; fill: none; }
    .card-title { font: 600 14px 'Segoe UI', Ubuntu, 'Helvetica Neue', sans-serif; fill: #c9d1d9; }
    .card-text { font: 400 12px 'Segoe UI', Ubuntu, 'Helvetica Neue', sans-serif; fill: #c9d1d9; }
    .card-text-secondary { font: 400 11px 'Segoe UI', Ubuntu, 'Helvetica Neue', sans-serif; fill: #8b949e; }
    .card-accent { fill: #58a6ff; }
    .card-footer { font: 400 9px 'Segoe UI', Ubuntu, 'Helvetica Neue', sans-serif; fill: #8b949e; }
  </style>
  <rect class="card-bg card-border" x="0.5" y="0.5" width="494" height="279" rx="6" />
  <g transform="translate(20, 24)">
    <text class="card-title" x="0" y="0">Most Active Files</text>
  </g>
  <line x1="20" y1="36" x2="475" y2="36" stroke="#30363d" stroke-width="0.5" />
  <g transform="translate(20, 48)">
    
      <g transform="translate(0, 0)">
        <text class="card-text-secondary" x="0" y="12" font-size="11">dist/collectors/activity.d.ts.map</text>
        <rect x="295" y="2" width="120" height="14" rx="3" fill="#58a6ff" opacity="0.6" />
        <text class="card-text-secondary" x="450" y="13" text-anchor="end" font-size="11">2</text>
      </g>
    
      <g transform="translate(0, 22)">
        <text class="card-text-secondary" x="0" y="12" font-size="11">dist/collectors/cicd.d.ts.map</text>
        <rect x="295" y="2" width="120" height="14" rx="3" fill="#58a6ff" opacity="0.6" />
        <text class="card-text-secondary" x="450" y="13" text-anchor="end" font-size="11">2</text>
      </g>
    
      <g transform="translate(0, 44)">
        <text class="card-text-secondary" x="0" y="12" font-size="11">dist/collectors/contributors.d.ts.map</text>
        <rect x="295" y="2" width="120" height="14" rx="3" fill="#58a6ff" opacity="0.6" />
        <text class="card-text-secondary" x="450" y="13" text-anchor="end" font-size="11">2</text>
      </g>
    
      <g transform="translate(0, 66)">
        <text class="card-text-secondary" x="0" y="12" font-size="11">dist/collectors/files.d.ts.map</text>
        <rect x="295" y="2" width="120" height="14" rx="3" fill="#58a6ff" opacity="0.6" />
        <text class="card-text-secondary" x="450" y="13" text-anchor="end" font-size="11">2</text>
      </g>
    
      <g transform="translate(0, 88)">
        <text class="card-text-secondary" x="0" y="12" font-size="11">dist/collectors/index.d.ts.map</text>
        <rect x="295" y="2" width="120" height="14" rx="3" fill="#58a6ff" opacity="0.6" />
        <text class="card-text-secondary" x="450" y="13" text-anchor="end" font-size="11">2</text>
      </g>
    
      <g transform="translate(0, 110)">
        <text class="card-text-secondary" x="0" y="12" font-size="11">dist/collectors/loc.d.ts.map</text>
        <rect x="295" y="2" width="120" height="14" rx="3" fill="#58a6ff" opacity="0.6" />
        <text class="card-text-secondary" x="450" y="13" text-anchor="end" font-size="11">2</text>
      </g>
    
      <g transform="translate(0, 132)">
        <text class="card-text-secondary" x="0" y="12" font-size="11">dist/collectors/repo-meta.d.ts.map</text>
        <rect x="295" y="2" width="120" height="14" rx="3" fill="#58a6ff" opacity="0.6" />
        <text class="card-text-secondary" x="450" y="13" text-anchor="end" font-size="11">2</text>
      </g>
    
      <g transform="translate(0, 154)">
        <text class="card-text-secondary" x="0" y="12" font-size="11">dist/index.js</text>
        <rect x="295" y="2" width="120" height="14" rx="3" fill="#58a6ff" opacity="0.6" />
        <text class="card-text-secondary" x="450" y="13" text-anchor="end" font-size="11">2</text>
      </g>
    
      <g transform="translate(0, 176)">
        <text class="card-text-secondary" x="0" y="12" font-size="11">dist/index.js.map</text>
        <rect x="295" y="2" width="120" height="14" rx="3" fill="#58a6ff" opacity="0.6" />
        <text class="card-text-secondary" x="450" y="13" text-anchor="end" font-size="11">2</text>
      </g>
    
      <g transform="translate(0, 198)">
        <text class="card-text-secondary" x="0" y="12" font-size="11">dist/svg/cards/cicd-status.d.ts.map</text>
        <rect x="295" y="2" width="120" height="14" rx="3" fill="#58a6ff" opacity="0.6" />
        <text class="card-text-secondary" x="450" y="13" text-anchor="end" font-size="11">2</text>
      </g>
    
  </g>
  <text class="card-footer" x="475" y="274" text-anchor="end">Generated by RepoStats</text>
</svg>